<mxfile host="app.diagrams.net" agent="Mozilla/5.0 (Macintosh; Intel Mac OS X 10_15_7) AppleWebKit/537.36 (KHTML, like Gecko) Chrome/134.0.0.0 Safari/537.36" version="26.1.1">
  <diagram id="prtHgNgQTEPvFCAcTncT" name="Page-1">
    <mxGraphModel dx="954" dy="639" grid="1" gridSize="10" guides="1" tooltips="1" connect="1" arrows="1" fold="1" page="1" pageScale="1" pageWidth="827" pageHeight="1169" background="none" math="0" shadow="0">
      <root>
        <mxCell id="0" />
        <mxCell id="1" parent="0" />
        <mxCell id="ywo1WpHsHruHExeg6Mcs-1" value="មន្ទីរពេទ្យខេត្តស្ទឹងត្រែង" style="swimlane;html=1;startSize=20;horizontal=1;containerType=tree;glass=0;rounded=1;" parent="1" vertex="1">
          <mxGeometry x="59" y="40" width="710" height="290" as="geometry" />
        </mxCell>
        <UserObject label="លោកវេជ្ជបណ្ឌិត ស៊ុយ សុភាព&lt;br&gt;&lt;i style=&quot;color: gray&quot;&gt;ប្រធានមន្ទីរពេទ្យខេត្ត&lt;/i&gt;&lt;br&gt;&lt;a href=&quot;mailto:me@example.com&quot;&gt;Email&lt;/a&gt;" name="លោកវេជ្ជបណ្ឌិត ស៊ុយ សុភាព" position="ប្រធានមន្ទីរពេទ្យខេត្ត" location="Office 1" email="me@example.com" placeholders="1" id="ywo1WpHsHruHExeg6Mcs-2">
          <mxCell style="label;image=https://cdn3.iconfinder.com/data/icons/user-avatars-1/512/users-3-128.png;whiteSpace=wrap;html=1;rounded=1;glass=0;treeMoving=1;treeFolding=1;fillColor=#dae8fc;strokeColor=#6c8ebf;" parent="ywo1WpHsHruHExeg6Mcs-1" vertex="1">
            <mxGeometry x="210" y="50" width="310" height="70" as="geometry" />
          </mxCell>
        </UserObject>
        <mxCell id="ywo1WpHsHruHExeg6Mcs-3" value="" style="endArrow=blockThin;endFill=1;fontSize=11;edgeStyle=elbowEdgeStyle;elbow=vertical;rounded=0;" parent="ywo1WpHsHruHExeg6Mcs-1" source="ywo1WpHsHruHExeg6Mcs-2" target="ywo1WpHsHruHExeg6Mcs-4" edge="1">
          <mxGeometry relative="1" as="geometry" />
        </mxCell>
        <UserObject label="&lt;div&gt;&lt;font style=&quot;color: rgb(0, 0, 0);&quot;&gt;លោកវេជ្ជបណ្ឌិត ខៀវ វិចិត្រ&lt;/font&gt;&lt;/div&gt;&lt;i style=&quot;color: gray;&quot;&gt;អនុប្រធានមន្ទីរពេទ្យខេត្ត&lt;/i&gt;&lt;br&gt;&lt;a href=&quot;mailto:me@example.com&quot;&gt;Email&lt;/a&gt;" name="Edward Morrison" position="Brand Manager" location="Office 2" placeholders="1" id="ywo1WpHsHruHExeg6Mcs-4">
          <mxCell style="label;image=https://cdn3.iconfinder.com/data/icons/user-avatars-1/512/users-10-3-128.png;whiteSpace=wrap;html=1;rounded=1;glass=0;treeFolding=1;treeMoving=1;fillColor=#fff2cc;strokeColor=#d6b656;" parent="ywo1WpHsHruHExeg6Mcs-1" vertex="1">
            <mxGeometry x="40" y="180" width="290" height="80" as="geometry" />
          </mxCell>
        </UserObject>
        <mxCell id="ywo1WpHsHruHExeg6Mcs-5" value="" style="endArrow=blockThin;endFill=1;fontSize=11;edgeStyle=elbowEdgeStyle;elbow=vertical;rounded=0;" parent="ywo1WpHsHruHExeg6Mcs-1" source="ywo1WpHsHruHExeg6Mcs-2" target="ywo1WpHsHruHExeg6Mcs-6" edge="1">
          <mxGeometry relative="1" as="geometry" />
        </mxCell>
        <UserObject label="លោកគ្រូពេទ្យ ហៀ សេធិល&lt;br&gt;&lt;i style=&quot;color: gray;&quot;&gt;អនុប្រធានមន្ទីរពេទ្យខេត្ត&lt;/i&gt;&lt;br&gt;&lt;a href=&quot;mailto:me@example.com&quot;&gt;Email&lt;/a&gt;" name="Alison Donovan" position="System Admin" location="Office 3" email="me@example.com" placeholders="1" link="https://www.draw.io" id="ywo1WpHsHruHExeg6Mcs-6">
          <mxCell style="label;image=https://cdn3.iconfinder.com/data/icons/user-avatars-1/512/users-2-128.png;whiteSpace=wrap;html=1;rounded=1;glass=0;fillColor=#fff2cc;strokeColor=#d6b656;" parent="ywo1WpHsHruHExeg6Mcs-1" vertex="1">
            <mxGeometry x="470" y="180" width="200" height="80" as="geometry" />
          </mxCell>
        </UserObject>
      </root>
    </mxGraphModel>
  </diagram>
</mxfile>
